<svg width="1200" height="200" viewBox="0 0 1200 200" fill="none" xmlns="http://www.w3.org/2000/svg">
<path d="M-5 200H1206V185.987H1170.95V149.553H1163.94L1160.43 152.356L1156.93 149.553L1153.42 152.356H1146.41L1142.91 149.553H1139.4L1135.9 152.356L1132.39 149.553V121.527L1128.89 118.724H1107.86L1097.34 127.132V141.145H1083.32V99.1059H1071.06V145.349L1064.04 135.54V99.1059H1050.02V135.54L1041.26 141.145V99.1059H1030.75V79.4876H1006.21V86.4941L962.398 124.329H957.14V57.0667H946.625V124.329H936.11V57.0667H923.842V152.356H918.585V185.987H913.327V100.507L857.246 92.0994V107.514H850.236V117.323L820.443 99.1059V59.8693H809.928V104.711L802.918 110.316V59.8693H792.402V115.922L785.392 121.527V181.783H769.619V22.034L753.847 13.6262L736.321 22.034V181.783H729.311V146.75H659.21V156.559H650.447V93.5007L631.169 80.8889L610.139 93.5007V156.559H589.109V90.6981L578.593 85.0928L569.831 90.6981V156.559H562.821V0L554.058 5.23567e-05V115.922H547.048V6.80005H536.533V107.514L527.77 103.31L490.967 122.928V183.184H483.957V122.928L447.153 103.31L420.865 115.922V22.034L405.093 13.6262L389.32 22.034V183.184H380.557V45.8563L373.547 40.251L366.537 45.8563V122.928H356.022V68.2772L254.375 103.31V61.2706H240.355V103.31H229.839V61.2706H212.314V122.928H201.799V61.2706H186.026V122.928H175.511V153.757H172.006V85.0928H154.48V96.3033H142.213V113.119H126.44V153.757H108.915V100.507H86.1317L70.3589 111.718H51.081V118.724H24.7931L17.7829 185.987H-5V200Z" fill="#78B9EB" fill-opacity="0.3"/>
</svg>
