<svg width="25" height="25" viewBox="0 0 25 25" fill="none" xmlns="http://www.w3.org/2000/svg">
<path d="M0.33591 24.6641C-0.111959 24.2162 -0.111959 23.4901 0.33591 23.0422L23.0422 0.335903C23.4901 -0.111967 24.2162 -0.111968 24.6641 0.335902C25.112 0.783771 25.112 1.50991 24.6641 1.95778L1.95779 24.6641C1.50992 25.112 0.78378 25.112 0.33591 24.6641Z" fill="black"/>
<path d="M24.6641 24.6641C24.2162 25.112 23.4901 25.112 23.0422 24.6641L0.335903 1.95778C-0.111967 1.50991 -0.111968 0.783773 0.335902 0.335904C0.783771 -0.111966 1.50991 -0.111966 1.95778 0.335904L24.6641 23.0422C25.112 23.4901 25.112 24.2162 24.6641 24.6641Z" fill="black"/>
</svg>
