<svg width="22" height="28" viewBox="0 0 22 28" fill="none" xmlns="http://www.w3.org/2000/svg">
<mask id="path-1-outside-1_508_163" maskUnits="userSpaceOnUse" x="-4.43546" y="-0.738417" width="29.2044" height="32.0328" fill="black">
<rect fill="white" x="-4.43546" y="-0.738417" width="29.2044" height="32.0328"/>
<path fill-rule="evenodd" clip-rule="evenodd" d="M11.0056 24.213L10.9426 24.2357L10.8167 24.3552L10.7882 24.2957L10.7321 24.2559L10.5514 24.1927L10.4871 24.1557L10.3742 24.0513L9.97836 23.5274L9.90733 23.5158L9.8083 23.5164L9.59654 23.5413L9.47334 23.5676L9.45715 23.6003L9.43045 23.6723L9.39226 23.8425L9.37421 23.8822L9.35448 23.9189L9.29893 23.951L9.22201 23.9799L9.07036 24.0109L8.99743 24.0433L8.9465 24.0766L8.89382 24.1441L8.80398 24.2856L8.61744 24.6683L8.5429 24.762L8.52288 24.7814L8.49532 24.8012L8.45794 24.8208L8.37353 24.813L8.25718 24.7769L7.82459 24.5745L7.7788 24.5425L7.72936 24.4872L7.58608 24.2288L6.75558 23.5192L6.63545 23.9122L6.62832 23.9573L6.63588 24.0582L6.62874 24.1033L6.61532 24.1442L6.49228 24.4004L6.46895 24.4783L6.45627 24.5441L6.45061 24.639L6.43404 24.7285L6.4206 24.7694L6.38919 24.8129L6.34207 24.8596L6.24435 24.9199L6.17603 24.9535L6.11312 24.9762L6.06313 24.9876L5.98132 24.9977L5.91564 25.0123L5.82009 25.046L5.72672 25.0902L5.64192 25.1392L5.59914 25.1698L5.49638 25.3227L5.35202 25.7785L5.32488 25.8429L5.30301 25.8691L5.27174 25.9028L5.2348 25.93L5.07731 25.9644L4.65815 25.9609L4.56628 26.0178L4.54777 26.05L4.53081 26.0949L4.52137 26.1393L4.46694 26.1395L4.41835 26.1364L4.05355 25.8286L3.99341 25.4812L3.9704 25.4379L3.93215 25.4054L3.80395 25.3859L3.75474 25.3851L3.5257 25.3361L3.39309 25.2684L3.11902 25.0738L3.08381 25.0669L3.04305 25.0806L2.92193 25.1545L2.88224 25.1735L2.83748 25.1838L2.79581 25.1825L2.75768 25.1773L2.72265 25.1604L2.69408 25.1379L2.64065 25.0791L2.62225 25.0371L2.61323 24.9877L2.62902 24.9104L2.65246 24.8598L2.67865 24.8174L2.831 24.6085L3.03331 24.287L3.05242 24.2525L3.04908 24.2096L3.01978 24.1622L2.93806 24.0983L2.82895 24.0443L2.805 24.023L2.76161 23.9175L2.74669 23.8072L2.74424 23.678L2.90451 22.9323L2.89689 22.8685L2.87039 22.7921L2.57504 22.4188L2.53043 22.3179L2.49389 22.1498L2.48863 22.0496L2.4989 21.9559L2.49596 21.8562L2.44609 21.655L2.40514 21.5773L2.34181 21.5553L2.24756 21.5474L1.92121 21.6033L1.78214 21.6427L1.67389 21.6409L1.50209 21.5627L1.71143 21.2702L2.00416 20.9432L2.06285 20.8625L2.16368 20.6522L2.25345 20.2066L2.36567 19.8708L2.37346 19.7863L2.36169 19.7288L2.29393 19.6958L2.06549 19.6445L1.98148 19.5799L1.84062 19.3494L1.99603 19.0276L2.2667 18.6354L2.31336 18.5811L2.44329 18.4651L2.54533 18.3887L3.09623 18.0666L3.29623 17.9842L3.3587 17.9539L3.43117 17.914L3.54768 17.8389L3.58911 17.7858L3.59916 17.739L3.57706 17.7108L3.17347 17.4371L3.14782 17.4129L3.12581 17.3106L3.20521 17.0327L3.2439 16.833L3.22914 16.7128L3.15914 16.5037L3.06834 16.3261L3.00832 16.2457L2.92413 16.191L2.63023 16.1073L2.43561 16.0774L2.27194 15.9965L2.08483 15.8648L2.0062 15.7893L1.95816 15.7196L1.916 15.508L1.91241 15.3093L1.95311 14.9914L1.92135 14.8148L1.7103 14.2836L1.8998 14.0006L1.8765 13.94L1.79317 13.9375L1.71522 13.924L1.64267 13.8996L1.54498 13.8215L1.44508 13.6687L1.21221 12.8869L1.21019 12.6638L1.21934 12.602L1.4299 11.9638L1.45581 11.904L1.49527 11.8305L1.7855 11.4113L1.81614 11.38L1.85371 11.3505L1.94141 11.2998L1.98483 11.267L2.02271 11.2178L2.02939 11.1652L1.98551 10.8494L1.97004 10.8057L1.94563 10.7769L1.90997 10.7624L1.87308 10.7525L1.67367 10.7312L1.53027 10.6853L1.49524 10.6685L1.45637 10.6384L1.41492 10.5902L1.36107 10.4867L1.33208 10.3183L1.33355 10.1283L1.40161 9.69909L1.40479 9.61343L1.3946 9.53157L1.33164 9.35153L1.36715 9.23744L1.50459 9.01965L1.55883 8.68808L1.65363 8.38961L1.92228 8.25394L1.93845 8.11985L2.01799 7.97057L2.21242 7.66917L2.2458 7.5446L2.23251 7.47429L2.25459 7.40111L2.37053 7.29124L2.29432 7.24363L1.90413 6.82759L1.78679 6.61073L1.77209 6.55489L1.78219 6.47108L1.80676 6.38863L1.86891 6.23967L1.88705 6.12587L1.87118 6.03755L1.82689 5.91692L1.82158 5.85369L1.84317 5.81005L1.96259 5.73325L2.03709 5.67659L2.16933 5.5612L2.35759 5.28286L2.42207 5.23586L2.48701 5.1964L2.53222 5.19367L2.65352 5.21135L2.86902 5.27405L2.90283 5.29545L2.95754 5.31258L3.02856 5.32422L3.16695 5.32421L3.2265 5.29566L3.2613 5.25802L3.31081 4.89799L3.30811 4.85275L3.30124 4.81383L3.29021 4.78121L3.27839 4.76075L3.17474 4.6588L3.15218 4.62309L3.13962 4.57771L3.15187 4.50434L3.18099 4.46024L3.23901 4.41893L3.30917 4.3784L3.44063 4.27517L3.50191 4.2125L3.7203 3.93233L3.9176 4.04452L4.02556 4.02894L4.0665 4.0053L4.14976 3.94356L4.19856 3.89978L4.23336 3.86212L4.25832 3.82432L4.27175 3.78341L4.25067 3.55774L4.25999 3.48609L4.30563 3.38953L4.34302 3.36988L4.37592 3.37622L4.52966 3.63249L4.56559 3.66439L4.61447 3.68488L4.7041 3.69161L4.76286 3.67521L4.80903 3.65049L4.84597 3.6233L4.9063 3.58261L4.98294 3.5364L5.13941 3.45966L5.22032 3.43439L5.28476 3.42446L5.65215 3.51053L5.78662 3.57128L5.81811 3.59209L5.87279 3.64627L5.98743 3.81792L6.06285 3.87769L6.12663 3.90713L6.18168 3.90458L6.22412 3.89372L6.29154 3.84503L6.51541 3.61823L6.56574 3.58721L6.63236 3.55068L6.8569 3.52432L7.03234 3.52435L7.07108 3.52733L7.10859 3.53491L7.14132 3.5511L7.36445 3.77898L7.41024 3.81102L7.49184 3.84773L7.54964 3.85332L7.60194 3.84262L7.64641 3.81497L7.68459 3.78319L7.72984 3.74338L7.75402 3.71772L7.77588 3.69147L7.79837 3.66288L7.84014 3.59L7.85817 3.55035L7.88148 3.37118L7.8777 3.32071L7.86639 3.27072L7.8296 3.18668L7.73272 3.05939L7.55439 2.92258L7.53166 2.89672L7.51832 2.86348L7.52759 2.82888L7.54502 2.79154L7.60865 2.69238L7.66779 2.61923L7.71271 2.59913L7.74731 2.6084L7.79895 2.73845L7.82489 2.77998L7.86037 2.80434L7.92712 2.79503L7.96867 2.76908L8.00055 2.73311L8.01397 2.69222L8.01757 2.65115L7.99168 2.57254L7.99021 2.52269L8.03108 2.43474L8.11945 2.10492L8.12712 1.99327L8.16309 1.88669L8.19481 1.86057L8.25373 1.83436L8.29771 1.83624L8.3369 1.84674L8.5478 2.00957L8.57498 2.04652L8.6035 2.10606L8.6205 2.16252L8.62596 2.21593L8.62575 2.26282L8.61862 2.3079L8.56258 2.47087L8.48936 2.62429L8.44277 2.74284L8.42244 2.88324L8.42641 3.02524L8.45032 3.08355L8.48333 3.11711L8.80404 3.15609L8.84864 3.15566L8.89446 3.15065L8.94153 3.14099L8.98815 3.12382L9.07293 3.07486L9.15373 3.02234L9.19067 2.99515L9.25594 2.93601L9.29979 2.91068L9.35501 2.89828L9.4388 2.90836L9.47412 2.94254L9.47868 2.98085L9.46525 3.02176L9.40544 3.13429L9.38741 3.17395L9.40406 3.25011L9.64063 3.6769L9.66421 3.75492L9.6577 3.79766L9.63083 3.87948L9.61954 3.93084L9.61747 3.98466L9.63414 4.06083L9.66608 4.08916L9.71067 4.08873L9.7516 4.06511L9.78623 4.03731L9.81688 4.00595L9.84521 3.97398L9.90212 3.96452L9.98007 3.97798L10.2384 4.11147L10.3065 4.12477L10.3399 4.10158L10.3722 4.07318L10.4532 3.97375L10.4874 3.9384L10.5279 3.90721L10.5908 3.88454L10.6306 3.89273L10.6632 3.91874L10.9901 4.47854L11.7362 5.31873L11.7131 5.55235L11.6773 5.58477L11.6332 5.61996L11.5909 5.62098L11.5067 5.60335L11.4575 5.60254L11.3877 5.62336L11.3725 5.66135L11.3765 5.70197L11.5302 5.95824L11.7724 6.12445L11.8453 6.23054L11.852 6.27929L11.8496 6.45417L11.8634 6.55925L11.8827 6.61633L11.9074 6.6625L12.0016 6.74459L12.1227 6.80917L12.3197 6.80262L12.4623 6.75926L12.568 6.70601L12.626 6.66468L12.6683 6.62659L12.6966 6.59462L12.7233 6.55975L12.7692 6.48059L12.7983 6.43645L12.8473 6.38282L12.891 6.36734L12.931 6.36571L13.1484 6.3844L13.2139 6.37971L13.326 6.35782L13.3793 6.32513L13.4187 6.2887L13.4785 6.1762L13.7636 5.74828L13.8363 5.59714L13.8428 5.55441L13.8371 5.51086L13.8169 5.47577L13.7902 5.44637L13.6992 5.37996L13.6802 5.34025L13.6764 5.28981L13.7116 5.1954L13.7455 5.14268L13.7822 5.09811L13.9196 4.98167L14.1966 4.79631L14.2484 4.75084L14.2896 4.70752L14.3709 4.56119L14.466 4.34439L14.5072 4.27385L14.5478 4.23283L14.5877 4.20395L14.6547 4.17496L14.6944 4.15591L14.7331 4.13167L14.9793 3.95044L15.0553 3.90653L15.1177 3.88614L15.1564 3.8891L15.1914 3.90591L15.22 3.92838L15.2444 3.95719L15.2634 3.9969L15.3201 4.41257L15.3136 4.45531L15.3008 4.49392L15.2823 4.52605L15.2242 4.60443L15.2045 4.64116L15.194 4.68038L15.1922 4.71452L15.21 4.75882L15.3576 4.93681L15.4317 5.24099L15.4376 5.44033L15.4198 5.53445L15.394 5.62148L15.3777 5.66409L15.2975 5.81565L15.2761 5.84947L15.1903 5.95749L15.1451 6.06159L15.3313 6.07687L17.1739 5.86849L17.3368 5.82311L17.4344 5.73556L17.4189 5.5905L17.4267 5.50605L17.5268 5.47355L17.7412 5.46671L18.0162 5.3995L18.184 5.33571L18.3547 5.24298L18.5244 5.17227L18.6669 5.16595L18.8005 5.17456L18.9129 5.17007L19.1548 6.03832L19.3968 6.27871L19.4219 6.3324L19.4345 6.37781L19.423 6.43901L19.4085 6.47466L19.3905 6.51434L19.3418 6.58534L19.2891 6.65282L19.2041 6.74871L19.1561 6.8174L19.1143 6.89026L19.0492 7.04094L19.0321 7.09567L18.9836 7.49802L18.9708 7.53659L18.9517 7.57103L18.9233 7.603L18.8835 7.63186L18.8453 7.66367L18.8046 7.70468L18.7981 7.74744L18.8861 8.57199L19.2481 8.90878L19.399 8.95417L19.8717 8.73966L19.9126 8.71601L19.9518 8.68944L19.9825 8.65812L20.0085 8.62553L20.0329 8.59002L20.0927 8.47748L20.1189 8.43507L20.1513 8.39682L20.2639 8.31817L20.3133 8.33638L20.3725 8.40166L20.453 8.57158L20.5083 8.62345L20.6818 8.70456L20.7472 8.77402L20.9815 9.4029L20.8935 9.50048L20.7335 9.71966L20.6847 9.76344L20.6073 9.82179L20.5436 9.85665L20.4523 9.9113L20.4174 9.95879L20.409 10.0085L20.4222 10.0515L20.5048 10.1948L20.5099 10.2407L20.5058 10.3113L20.4762 10.4492L20.4472 10.5206L20.4156 10.5739L20.3787 10.6011L20.3371 10.627L20.2333 10.6734L20.1754 10.7048L20.1039 10.7598L20.0695 10.805L20.0473 10.851L20.0318 10.9457L20.0312 11.0864L20.147 11.3276L20.1428 11.4353L20.0531 11.6041L20.0247 11.6731L20.0291 11.7213L20.0512 11.7494L20.1162 11.7743L20.1484 11.7928L20.236 11.8805L20.2457 11.9276L20.2368 11.9697L20.2148 12.0059L20.1295 12.1214L20.0956 12.1742L20.0507 12.2586L20.0429 12.343L20.3266 13.1656L20.3431 13.1873L20.366 13.2033L20.4367 13.2346L20.4791 13.2608L20.4825 13.2939L20.4366 13.4744L20.4415 13.5301L20.6214 13.9838L20.6318 14.0558L20.6247 14.1008L20.6088 14.1509L20.5395 14.3079L20.3438 14.614L20.2973 14.6583L20.2253 14.7058L20.1843 14.7022L20.1528 14.6814L20.0745 14.5863L19.9988 14.5734L19.8772 14.5754L19.595 14.6234L19.384 14.6361L19.3483 14.6216L19.2854 14.58L19.1188 14.3994L19.0816 14.3721L19.0224 14.3439L18.9846 14.3561L18.9506 14.3815L18.8805 14.4864L18.8492 14.52L18.7804 14.5831L18.6573 14.6738L18.6097 14.713L18.5772 14.7512L18.5354 14.8241L18.3999 15.1363L18.1438 15.6215L18.1281 15.6618L18.1193 15.7039L18.1184 15.7531L18.1378 15.9116L18.1346 15.9602L18.1046 16.0263L18.05 16.1007L17.8772 16.257L17.338 16.6367L17.1117 16.8356L17.1731 17.4182L17.1178 17.8089L17.1516 18.1071L16.6567 18.4417L16.4812 18.5431L16.4357 18.5655L16.3946 18.599L16.3644 18.6378L16.3559 18.6974L16.3792 18.7209L16.4161 18.7308L16.5488 18.7243L16.5899 18.7279L16.6261 18.7401L16.685 18.788L16.7296 18.8519L16.7428 18.895L16.7472 18.9431L16.7407 18.9859L16.725 19.0262L16.7029 19.0623L16.6769 19.0949L16.6375 19.1313L16.5899 19.1705L16.5183 19.2255L16.432 19.2987L16.2934 19.447L16.2614 19.4557L16.2081 19.4612L16.1009 19.4275L16.0441 19.4L15.9709 19.3408L15.9388 19.3223L15.9025 19.3101L15.8494 19.3058L15.7845 19.3082L15.6654 19.3282L15.5991 19.345L15.4383 19.4379L15.2436 19.6206L15.1846 19.6839L15.1579 19.7188L15.0486 19.8502L15.0157 19.8809L14.981 19.9087L14.9418 19.9353L14.7768 20.0344L14.7474 20.0612L14.7268 20.0828L14.7258 20.1048L14.7335 20.1316L14.7778 20.2152L14.7898 20.2258L14.8759 20.1994L14.9207 20.1892L14.9594 20.1922L14.9722 20.2277L14.9555 20.29L14.8766 20.3999L14.8235 20.4598L14.7747 20.5036L14.7377 20.5308L14.5312 20.6559L14.4966 20.6837L14.4636 20.7144L14.4356 20.7638L14.4101 20.8311L14.3949 20.9803L14.3952 21.062L14.4822 21.3646L14.2894 21.4662L14.1943 21.4704L14.0462 21.4332L13.9126 21.4246L13.7351 21.4413L13.6883 21.4684L13.6464 21.514L13.6043 21.6065L13.5588 21.7674L13.5349 21.8104L13.4965 21.852L13.4205 21.896L13.3676 21.909L13.3213 21.9065L13.2214 21.855L13.1759 21.8774L13.1152 21.9378L13.0242 22.084L12.9353 22.1664L12.8727 22.2065L12.8239 22.2132L12.7371 22.2147L12.6897 22.244L12.6424 22.3006L12.6036 22.436L12.6 22.5142L12.6105 22.5763L12.7789 22.8885L12.7909 22.9361L12.7947 22.9866L12.7827 23.0773L12.7599 23.1256L12.726 23.1783L12.6087 23.3026L12.5295 23.3581L12.4734 23.3925L12.0602 23.5512L11.8663 23.6476L11.7704 23.701L11.7249 23.7234L11.6621 23.7363L11.6117 23.7401L11.4169 23.6829L11.3374 23.6938L11.3126 23.7217L11.2972 23.7794L11.3277 24.0991L11.2986 24.1432L11.2418 24.1799L11.0938 24.1971L11.0197 24.197L11.0056 24.213Z"/>
</mask>
<path fill-rule="evenodd" clip-rule="evenodd" d="M11.0056 24.213L10.9426 24.2357L10.8167 24.3552L10.7882 24.2957L10.7321 24.2559L10.5514 24.1927L10.4871 24.1557L10.3742 24.0513L9.97836 23.5274L9.90733 23.5158L9.8083 23.5164L9.59654 23.5413L9.47334 23.5676L9.45715 23.6003L9.43045 23.6723L9.39226 23.8425L9.37421 23.8822L9.35448 23.9189L9.29893 23.951L9.22201 23.9799L9.07036 24.0109L8.99743 24.0433L8.9465 24.0766L8.89382 24.1441L8.80398 24.2856L8.61744 24.6683L8.5429 24.762L8.52288 24.7814L8.49532 24.8012L8.45794 24.8208L8.37353 24.813L8.25718 24.7769L7.82459 24.5745L7.7788 24.5425L7.72936 24.4872L7.58608 24.2288L6.75558 23.5192L6.63545 23.9122L6.62832 23.9573L6.63588 24.0582L6.62874 24.1033L6.61532 24.1442L6.49228 24.4004L6.46895 24.4783L6.45627 24.5441L6.45061 24.639L6.43404 24.7285L6.4206 24.7694L6.38919 24.8129L6.34207 24.8596L6.24435 24.9199L6.17603 24.9535L6.11312 24.9762L6.06313 24.9876L5.98132 24.9977L5.91564 25.0123L5.82009 25.046L5.72672 25.0902L5.64192 25.1392L5.59914 25.1698L5.49638 25.3227L5.35202 25.7785L5.32488 25.8429L5.30301 25.8691L5.27174 25.9028L5.2348 25.93L5.07731 25.9644L4.65815 25.9609L4.56628 26.0178L4.54777 26.05L4.53081 26.0949L4.52137 26.1393L4.46694 26.1395L4.41835 26.1364L4.05355 25.8286L3.99341 25.4812L3.9704 25.4379L3.93215 25.4054L3.80395 25.3859L3.75474 25.3851L3.5257 25.3361L3.39309 25.2684L3.11902 25.0738L3.08381 25.0669L3.04305 25.0806L2.92193 25.1545L2.88224 25.1735L2.83748 25.1838L2.79581 25.1825L2.75768 25.1773L2.72265 25.1604L2.69408 25.1379L2.64065 25.0791L2.62225 25.0371L2.61323 24.9877L2.62902 24.9104L2.65246 24.8598L2.67865 24.8174L2.831 24.6085L3.03331 24.287L3.05242 24.2525L3.04908 24.2096L3.01978 24.1622L2.93806 24.0983L2.82895 24.0443L2.805 24.023L2.76161 23.9175L2.74669 23.8072L2.74424 23.678L2.90451 22.9323L2.89689 22.8685L2.87039 22.7921L2.57504 22.4188L2.53043 22.3179L2.49389 22.1498L2.48863 22.0496L2.4989 21.9559L2.49596 21.8562L2.44609 21.655L2.40514 21.5773L2.34181 21.5553L2.24756 21.5474L1.92121 21.6033L1.78214 21.6427L1.67389 21.6409L1.50209 21.5627L1.71143 21.2702L2.00416 20.9432L2.06285 20.8625L2.16368 20.6522L2.25345 20.2066L2.36567 19.8708L2.37346 19.7863L2.36169 19.7288L2.29393 19.6958L2.06549 19.6445L1.98148 19.5799L1.84062 19.3494L1.99603 19.0276L2.2667 18.6354L2.31336 18.5811L2.44329 18.4651L2.54533 18.3887L3.09623 18.0666L3.29623 17.9842L3.3587 17.9539L3.43117 17.914L3.54768 17.8389L3.58911 17.7858L3.59916 17.739L3.57706 17.7108L3.17347 17.4371L3.14782 17.4129L3.12581 17.3106L3.20521 17.0327L3.2439 16.833L3.22914 16.7128L3.15914 16.5037L3.06834 16.3261L3.00832 16.2457L2.92413 16.191L2.63023 16.1073L2.43561 16.0774L2.27194 15.9965L2.08483 15.8648L2.0062 15.7893L1.95816 15.7196L1.916 15.508L1.91241 15.3093L1.95311 14.9914L1.92135 14.8148L1.7103 14.2836L1.8998 14.0006L1.8765 13.94L1.79317 13.9375L1.71522 13.924L1.64267 13.8996L1.54498 13.8215L1.44508 13.6687L1.21221 12.8869L1.21019 12.6638L1.21934 12.602L1.4299 11.9638L1.45581 11.904L1.49527 11.8305L1.7855 11.4113L1.81614 11.38L1.85371 11.3505L1.94141 11.2998L1.98483 11.267L2.02271 11.2178L2.02939 11.1652L1.98551 10.8494L1.97004 10.8057L1.94563 10.7769L1.90997 10.7624L1.87308 10.7525L1.67367 10.7312L1.53027 10.6853L1.49524 10.6685L1.45637 10.6384L1.41492 10.5902L1.36107 10.4867L1.33208 10.3183L1.33355 10.1283L1.40161 9.69909L1.40479 9.61343L1.3946 9.53157L1.33164 9.35153L1.36715 9.23744L1.50459 9.01965L1.55883 8.68808L1.65363 8.38961L1.92228 8.25394L1.93845 8.11985L2.01799 7.97057L2.21242 7.66917L2.2458 7.5446L2.23251 7.47429L2.25459 7.40111L2.37053 7.29124L2.29432 7.24363L1.90413 6.82759L1.78679 6.61073L1.77209 6.55489L1.78219 6.47108L1.80676 6.38863L1.86891 6.23967L1.88705 6.12587L1.87118 6.03755L1.82689 5.91692L1.82158 5.85369L1.84317 5.81005L1.96259 5.73325L2.03709 5.67659L2.16933 5.5612L2.35759 5.28286L2.42207 5.23586L2.48701 5.1964L2.53222 5.19367L2.65352 5.21135L2.86902 5.27405L2.90283 5.29545L2.95754 5.31258L3.02856 5.32422L3.16695 5.32421L3.2265 5.29566L3.2613 5.25802L3.31081 4.89799L3.30811 4.85275L3.30124 4.81383L3.29021 4.78121L3.27839 4.76075L3.17474 4.6588L3.15218 4.62309L3.13962 4.57771L3.15187 4.50434L3.18099 4.46024L3.23901 4.41893L3.30917 4.3784L3.44063 4.27517L3.50191 4.2125L3.7203 3.93233L3.9176 4.04452L4.02556 4.02894L4.0665 4.0053L4.14976 3.94356L4.19856 3.89978L4.23336 3.86212L4.25832 3.82432L4.27175 3.78341L4.25067 3.55774L4.25999 3.48609L4.30563 3.38953L4.34302 3.36988L4.37592 3.37622L4.52966 3.63249L4.56559 3.66439L4.61447 3.68488L4.7041 3.69161L4.76286 3.67521L4.80903 3.65049L4.84597 3.6233L4.9063 3.58261L4.98294 3.5364L5.13941 3.45966L5.22032 3.43439L5.28476 3.42446L5.65215 3.51053L5.78662 3.57128L5.81811 3.59209L5.87279 3.64627L5.98743 3.81792L6.06285 3.87769L6.12663 3.90713L6.18168 3.90458L6.22412 3.89372L6.29154 3.84503L6.51541 3.61823L6.56574 3.58721L6.63236 3.55068L6.8569 3.52432L7.03234 3.52435L7.07108 3.52733L7.10859 3.53491L7.14132 3.5511L7.36445 3.77898L7.41024 3.81102L7.49184 3.84773L7.54964 3.85332L7.60194 3.84262L7.64641 3.81497L7.68459 3.78319L7.72984 3.74338L7.75402 3.71772L7.77588 3.69147L7.79837 3.66288L7.84014 3.59L7.85817 3.55035L7.88148 3.37118L7.8777 3.32071L7.86639 3.27072L7.8296 3.18668L7.73272 3.05939L7.55439 2.92258L7.53166 2.89672L7.51832 2.86348L7.52759 2.82888L7.54502 2.79154L7.60865 2.69238L7.66779 2.61923L7.71271 2.59913L7.74731 2.6084L7.79895 2.73845L7.82489 2.77998L7.86037 2.80434L7.92712 2.79503L7.96867 2.76908L8.00055 2.73311L8.01397 2.69222L8.01757 2.65115L7.99168 2.57254L7.99021 2.52269L8.03108 2.43474L8.11945 2.10492L8.12712 1.99327L8.16309 1.88669L8.19481 1.86057L8.25373 1.83436L8.29771 1.83624L8.3369 1.84674L8.5478 2.00957L8.57498 2.04652L8.6035 2.10606L8.6205 2.16252L8.62596 2.21593L8.62575 2.26282L8.61862 2.3079L8.56258 2.47087L8.48936 2.62429L8.44277 2.74284L8.42244 2.88324L8.42641 3.02524L8.45032 3.08355L8.48333 3.11711L8.80404 3.15609L8.84864 3.15566L8.89446 3.15065L8.94153 3.14099L8.98815 3.12382L9.07293 3.07486L9.15373 3.02234L9.19067 2.99515L9.25594 2.93601L9.29979 2.91068L9.35501 2.89828L9.4388 2.90836L9.47412 2.94254L9.47868 2.98085L9.46525 3.02176L9.40544 3.13429L9.38741 3.17395L9.40406 3.25011L9.64063 3.6769L9.66421 3.75492L9.6577 3.79766L9.63083 3.87948L9.61954 3.93084L9.61747 3.98466L9.63414 4.06083L9.66608 4.08916L9.71067 4.08873L9.7516 4.06511L9.78623 4.03731L9.81688 4.00595L9.84521 3.97398L9.90212 3.96452L9.98007 3.97798L10.2384 4.11147L10.3065 4.12477L10.3399 4.10158L10.3722 4.07318L10.4532 3.97375L10.4874 3.9384L10.5279 3.90721L10.5908 3.88454L10.6306 3.89273L10.6632 3.91874L10.9901 4.47854L11.7362 5.31873L11.7131 5.55235L11.6773 5.58477L11.6332 5.61996L11.5909 5.62098L11.5067 5.60335L11.4575 5.60254L11.3877 5.62336L11.3725 5.66135L11.3765 5.70197L11.5302 5.95824L11.7724 6.12445L11.8453 6.23054L11.852 6.27929L11.8496 6.45417L11.8634 6.55925L11.8827 6.61633L11.9074 6.6625L12.0016 6.74459L12.1227 6.80917L12.3197 6.80262L12.4623 6.75926L12.568 6.70601L12.626 6.66468L12.6683 6.62659L12.6966 6.59462L12.7233 6.55975L12.7692 6.48059L12.7983 6.43645L12.8473 6.38282L12.891 6.36734L12.931 6.36571L13.1484 6.3844L13.2139 6.37971L13.326 6.35782L13.3793 6.32513L13.4187 6.2887L13.4785 6.1762L13.7636 5.74828L13.8363 5.59714L13.8428 5.55441L13.8371 5.51086L13.8169 5.47577L13.7902 5.44637L13.6992 5.37996L13.6802 5.34025L13.6764 5.28981L13.7116 5.1954L13.7455 5.14268L13.7822 5.09811L13.9196 4.98167L14.1966 4.79631L14.2484 4.75084L14.2896 4.70752L14.3709 4.56119L14.466 4.34439L14.5072 4.27385L14.5478 4.23283L14.5877 4.20395L14.6547 4.17496L14.6944 4.15591L14.7331 4.13167L14.9793 3.95044L15.0553 3.90653L15.1177 3.88614L15.1564 3.8891L15.1914 3.90591L15.22 3.92838L15.2444 3.95719L15.2634 3.9969L15.3201 4.41257L15.3136 4.45531L15.3008 4.49392L15.2823 4.52605L15.2242 4.60443L15.2045 4.64116L15.194 4.68038L15.1922 4.71452L15.21 4.75882L15.3576 4.93681L15.4317 5.24099L15.4376 5.44033L15.4198 5.53445L15.394 5.62148L15.3777 5.66409L15.2975 5.81565L15.2761 5.84947L15.1903 5.95749L15.1451 6.06159L15.3313 6.07687L17.1739 5.86849L17.3368 5.82311L17.4344 5.73556L17.4189 5.5905L17.4267 5.50605L17.5268 5.47355L17.7412 5.46671L18.0162 5.3995L18.184 5.33571L18.3547 5.24298L18.5244 5.17227L18.6669 5.16595L18.8005 5.17456L18.9129 5.17007L19.1548 6.03832L19.3968 6.27871L19.4219 6.3324L19.4345 6.37781L19.423 6.43901L19.4085 6.47466L19.3905 6.51434L19.3418 6.58534L19.2891 6.65282L19.2041 6.74871L19.1561 6.8174L19.1143 6.89026L19.0492 7.04094L19.0321 7.09567L18.9836 7.49802L18.9708 7.53659L18.9517 7.57103L18.9233 7.603L18.8835 7.63186L18.8453 7.66367L18.8046 7.70468L18.7981 7.74744L18.8861 8.57199L19.2481 8.90878L19.399 8.95417L19.8717 8.73966L19.9126 8.71601L19.9518 8.68944L19.9825 8.65812L20.0085 8.62553L20.0329 8.59002L20.0927 8.47748L20.1189 8.43507L20.1513 8.39682L20.2639 8.31817L20.3133 8.33638L20.3725 8.40166L20.453 8.57158L20.5083 8.62345L20.6818 8.70456L20.7472 8.77402L20.9815 9.4029L20.8935 9.50048L20.7335 9.71966L20.6847 9.76344L20.6073 9.82179L20.5436 9.85665L20.4523 9.9113L20.4174 9.95879L20.409 10.0085L20.4222 10.0515L20.5048 10.1948L20.5099 10.2407L20.5058 10.3113L20.4762 10.4492L20.4472 10.5206L20.4156 10.5739L20.3787 10.6011L20.3371 10.627L20.2333 10.6734L20.1754 10.7048L20.1039 10.7598L20.0695 10.805L20.0473 10.851L20.0318 10.9457L20.0312 11.0864L20.147 11.3276L20.1428 11.4353L20.0531 11.6041L20.0247 11.6731L20.0291 11.7213L20.0512 11.7494L20.1162 11.7743L20.1484 11.7928L20.236 11.8805L20.2457 11.9276L20.2368 11.9697L20.2148 12.0059L20.1295 12.1214L20.0956 12.1742L20.0507 12.2586L20.0429 12.343L20.3266 13.1656L20.3431 13.1873L20.366 13.2033L20.4367 13.2346L20.4791 13.2608L20.4825 13.2939L20.4366 13.4744L20.4415 13.5301L20.6214 13.9838L20.6318 14.0558L20.6247 14.1008L20.6088 14.1509L20.5395 14.3079L20.3438 14.614L20.2973 14.6583L20.2253 14.7058L20.1843 14.7022L20.1528 14.6814L20.0745 14.5863L19.9988 14.5734L19.8772 14.5754L19.595 14.6234L19.384 14.6361L19.3483 14.6216L19.2854 14.58L19.1188 14.3994L19.0816 14.3721L19.0224 14.3439L18.9846 14.3561L18.9506 14.3815L18.8805 14.4864L18.8492 14.52L18.7804 14.5831L18.6573 14.6738L18.6097 14.713L18.5772 14.7512L18.5354 14.8241L18.3999 15.1363L18.1438 15.6215L18.1281 15.6618L18.1193 15.7039L18.1184 15.7531L18.1378 15.9116L18.1346 15.9602L18.1046 16.0263L18.05 16.1007L17.8772 16.257L17.338 16.6367L17.1117 16.8356L17.1731 17.4182L17.1178 17.8089L17.1516 18.1071L16.6567 18.4417L16.4812 18.5431L16.4357 18.5655L16.3946 18.599L16.3644 18.6378L16.3559 18.6974L16.3792 18.7209L16.4161 18.7308L16.5488 18.7243L16.5899 18.7279L16.6261 18.7401L16.685 18.788L16.7296 18.8519L16.7428 18.895L16.7472 18.9431L16.7407 18.9859L16.725 19.0262L16.7029 19.0623L16.6769 19.0949L16.6375 19.1313L16.5899 19.1705L16.5183 19.2255L16.432 19.2987L16.2934 19.447L16.2614 19.4557L16.2081 19.4612L16.1009 19.4275L16.0441 19.4L15.9709 19.3408L15.9388 19.3223L15.9025 19.3101L15.8494 19.3058L15.7845 19.3082L15.6654 19.3282L15.5991 19.345L15.4383 19.4379L15.2436 19.6206L15.1846 19.6839L15.1579 19.7188L15.0486 19.8502L15.0157 19.8809L14.981 19.9087L14.9418 19.9353L14.7768 20.0344L14.7474 20.0612L14.7268 20.0828L14.7258 20.1048L14.7335 20.1316L14.7778 20.2152L14.7898 20.2258L14.8759 20.1994L14.9207 20.1892L14.9594 20.1922L14.9722 20.2277L14.9555 20.29L14.8766 20.3999L14.8235 20.4598L14.7747 20.5036L14.7377 20.5308L14.5312 20.6559L14.4966 20.6837L14.4636 20.7144L14.4356 20.7638L14.4101 20.8311L14.3949 20.9803L14.3952 21.062L14.4822 21.3646L14.2894 21.4662L14.1943 21.4704L14.0462 21.4332L13.9126 21.4246L13.7351 21.4413L13.6883 21.4684L13.6464 21.514L13.6043 21.6065L13.5588 21.7674L13.5349 21.8104L13.4965 21.852L13.4205 21.896L13.3676 21.909L13.3213 21.9065L13.2214 21.855L13.1759 21.8774L13.1152 21.9378L13.0242 22.084L12.9353 22.1664L12.8727 22.2065L12.8239 22.2132L12.7371 22.2147L12.6897 22.244L12.6424 22.3006L12.6036 22.436L12.6 22.5142L12.6105 22.5763L12.7789 22.8885L12.7909 22.9361L12.7947 22.9866L12.7827 23.0773L12.7599 23.1256L12.726 23.1783L12.6087 23.3026L12.5295 23.3581L12.4734 23.3925L12.0602 23.5512L11.8663 23.6476L11.7704 23.701L11.7249 23.7234L11.6621 23.7363L11.6117 23.7401L11.4169 23.6829L11.3374 23.6938L11.3126 23.7217L11.2972 23.7794L11.3277 24.0991L11.2986 24.1432L11.2418 24.1799L11.0938 24.1971L11.0197 24.197L11.0056 24.213Z" fill="#0046C7"/>
<path fill-rule="evenodd" clip-rule="evenodd" d="M11.0056 24.213L10.9426 24.2357L10.8167 24.3552L10.7882 24.2957L10.7321 24.2559L10.5514 24.1927L10.4871 24.1557L10.3742 24.0513L9.97836 23.5274L9.90733 23.5158L9.8083 23.5164L9.59654 23.5413L9.47334 23.5676L9.45715 23.6003L9.43045 23.6723L9.39226 23.8425L9.37421 23.8822L9.35448 23.9189L9.29893 23.951L9.22201 23.9799L9.07036 24.0109L8.99743 24.0433L8.9465 24.0766L8.89382 24.1441L8.80398 24.2856L8.61744 24.6683L8.5429 24.762L8.52288 24.7814L8.49532 24.8012L8.45794 24.8208L8.37353 24.813L8.25718 24.7769L7.82459 24.5745L7.7788 24.5425L7.72936 24.4872L7.58608 24.2288L6.75558 23.5192L6.63545 23.9122L6.62832 23.9573L6.63588 24.0582L6.62874 24.1033L6.61532 24.1442L6.49228 24.4004L6.46895 24.4783L6.45627 24.5441L6.45061 24.639L6.43404 24.7285L6.4206 24.7694L6.38919 24.8129L6.34207 24.8596L6.24435 24.9199L6.17603 24.9535L6.11312 24.9762L6.06313 24.9876L5.98132 24.9977L5.91564 25.0123L5.82009 25.046L5.72672 25.0902L5.64192 25.1392L5.59914 25.1698L5.49638 25.3227L5.35202 25.7785L5.32488 25.8429L5.30301 25.8691L5.27174 25.9028L5.2348 25.93L5.07731 25.9644L4.65815 25.9609L4.56628 26.0178L4.54777 26.05L4.53081 26.0949L4.52137 26.1393L4.46694 26.1395L4.41835 26.1364L4.05355 25.8286L3.99341 25.4812L3.9704 25.4379L3.93215 25.4054L3.80395 25.3859L3.75474 25.3851L3.5257 25.3361L3.39309 25.2684L3.11902 25.0738L3.08381 25.0669L3.04305 25.0806L2.92193 25.1545L2.88224 25.1735L2.83748 25.1838L2.79581 25.1825L2.75768 25.1773L2.72265 25.1604L2.69408 25.1379L2.64065 25.0791L2.62225 25.0371L2.61323 24.9877L2.62902 24.9104L2.65246 24.8598L2.67865 24.8174L2.831 24.6085L3.03331 24.287L3.05242 24.2525L3.04908 24.2096L3.01978 24.1622L2.93806 24.0983L2.82895 24.0443L2.805 24.023L2.76161 23.9175L2.74669 23.8072L2.74424 23.678L2.90451 22.9323L2.89689 22.8685L2.87039 22.7921L2.57504 22.4188L2.53043 22.3179L2.49389 22.1498L2.48863 22.0496L2.4989 21.9559L2.49596 21.8562L2.44609 21.655L2.40514 21.5773L2.34181 21.5553L2.24756 21.5474L1.92121 21.6033L1.78214 21.6427L1.67389 21.6409L1.50209 21.5627L1.71143 21.2702L2.00416 20.9432L2.06285 20.8625L2.16368 20.6522L2.25345 20.2066L2.36567 19.8708L2.37346 19.7863L2.36169 19.7288L2.29393 19.6958L2.06549 19.6445L1.98148 19.5799L1.84062 19.3494L1.99603 19.0276L2.2667 18.6354L2.31336 18.5811L2.44329 18.4651L2.54533 18.3887L3.09623 18.0666L3.29623 17.9842L3.3587 17.9539L3.43117 17.914L3.54768 17.8389L3.58911 17.7858L3.59916 17.739L3.57706 17.7108L3.17347 17.4371L3.14782 17.4129L3.12581 17.3106L3.20521 17.0327L3.2439 16.833L3.22914 16.7128L3.15914 16.5037L3.06834 16.3261L3.00832 16.2457L2.92413 16.191L2.63023 16.1073L2.43561 16.0774L2.27194 15.9965L2.08483 15.8648L2.0062 15.7893L1.95816 15.7196L1.916 15.508L1.91241 15.3093L1.95311 14.9914L1.92135 14.8148L1.7103 14.2836L1.8998 14.0006L1.8765 13.94L1.79317 13.9375L1.71522 13.924L1.64267 13.8996L1.54498 13.8215L1.44508 13.6687L1.21221 12.8869L1.21019 12.6638L1.21934 12.602L1.4299 11.9638L1.45581 11.904L1.49527 11.8305L1.7855 11.4113L1.81614 11.38L1.85371 11.3505L1.94141 11.2998L1.98483 11.267L2.02271 11.2178L2.02939 11.1652L1.98551 10.8494L1.97004 10.8057L1.94563 10.7769L1.90997 10.7624L1.87308 10.7525L1.67367 10.7312L1.53027 10.6853L1.49524 10.6685L1.45637 10.6384L1.41492 10.5902L1.36107 10.4867L1.33208 10.3183L1.33355 10.1283L1.40161 9.69909L1.40479 9.61343L1.3946 9.53157L1.33164 9.35153L1.36715 9.23744L1.50459 9.01965L1.55883 8.68808L1.65363 8.38961L1.92228 8.25394L1.93845 8.11985L2.01799 7.97057L2.21242 7.66917L2.2458 7.5446L2.23251 7.47429L2.25459 7.40111L2.37053 7.29124L2.29432 7.24363L1.90413 6.82759L1.78679 6.61073L1.77209 6.55489L1.78219 6.47108L1.80676 6.38863L1.86891 6.23967L1.88705 6.12587L1.87118 6.03755L1.82689 5.91692L1.82158 5.85369L1.84317 5.81005L1.96259 5.73325L2.03709 5.67659L2.16933 5.5612L2.35759 5.28286L2.42207 5.23586L2.48701 5.1964L2.53222 5.19367L2.65352 5.21135L2.86902 5.27405L2.90283 5.29545L2.95754 5.31258L3.02856 5.32422L3.16695 5.32421L3.2265 5.29566L3.2613 5.25802L3.31081 4.89799L3.30811 4.85275L3.30124 4.81383L3.29021 4.78121L3.27839 4.76075L3.17474 4.6588L3.15218 4.62309L3.13962 4.57771L3.15187 4.50434L3.18099 4.46024L3.23901 4.41893L3.30917 4.3784L3.44063 4.27517L3.50191 4.2125L3.7203 3.93233L3.9176 4.04452L4.02556 4.02894L4.0665 4.0053L4.14976 3.94356L4.19856 3.89978L4.23336 3.86212L4.25832 3.82432L4.27175 3.78341L4.25067 3.55774L4.25999 3.48609L4.30563 3.38953L4.34302 3.36988L4.37592 3.37622L4.52966 3.63249L4.56559 3.66439L4.61447 3.68488L4.7041 3.69161L4.76286 3.67521L4.80903 3.65049L4.84597 3.6233L4.9063 3.58261L4.98294 3.5364L5.13941 3.45966L5.22032 3.43439L5.28476 3.42446L5.65215 3.51053L5.78662 3.57128L5.81811 3.59209L5.87279 3.64627L5.98743 3.81792L6.06285 3.87769L6.12663 3.90713L6.18168 3.90458L6.22412 3.89372L6.29154 3.84503L6.51541 3.61823L6.56574 3.58721L6.63236 3.55068L6.8569 3.52432L7.03234 3.52435L7.07108 3.52733L7.10859 3.53491L7.14132 3.5511L7.36445 3.77898L7.41024 3.81102L7.49184 3.84773L7.54964 3.85332L7.60194 3.84262L7.64641 3.81497L7.68459 3.78319L7.72984 3.74338L7.75402 3.71772L7.77588 3.69147L7.79837 3.66288L7.84014 3.59L7.85817 3.55035L7.88148 3.37118L7.8777 3.32071L7.86639 3.27072L7.8296 3.18668L7.73272 3.05939L7.55439 2.92258L7.53166 2.89672L7.51832 2.86348L7.52759 2.82888L7.54502 2.79154L7.60865 2.69238L7.66779 2.61923L7.71271 2.59913L7.74731 2.6084L7.79895 2.73845L7.82489 2.77998L7.86037 2.80434L7.92712 2.79503L7.96867 2.76908L8.00055 2.73311L8.01397 2.69222L8.01757 2.65115L7.99168 2.57254L7.99021 2.52269L8.03108 2.43474L8.11945 2.10492L8.12712 1.99327L8.16309 1.88669L8.19481 1.86057L8.25373 1.83436L8.29771 1.83624L8.3369 1.84674L8.5478 2.00957L8.57498 2.04652L8.6035 2.10606L8.6205 2.16252L8.62596 2.21593L8.62575 2.26282L8.61862 2.3079L8.56258 2.47087L8.48936 2.62429L8.44277 2.74284L8.42244 2.88324L8.42641 3.02524L8.45032 3.08355L8.48333 3.11711L8.80404 3.15609L8.84864 3.15566L8.89446 3.15065L8.94153 3.14099L8.98815 3.12382L9.07293 3.07486L9.15373 3.02234L9.19067 2.99515L9.25594 2.93601L9.29979 2.91068L9.35501 2.89828L9.4388 2.90836L9.47412 2.94254L9.47868 2.98085L9.46525 3.02176L9.40544 3.13429L9.38741 3.17395L9.40406 3.25011L9.64063 3.6769L9.66421 3.75492L9.6577 3.79766L9.63083 3.87948L9.61954 3.93084L9.61747 3.98466L9.63414 4.06083L9.66608 4.08916L9.71067 4.08873L9.7516 4.06511L9.78623 4.03731L9.81688 4.00595L9.84521 3.97398L9.90212 3.96452L9.98007 3.97798L10.2384 4.11147L10.3065 4.12477L10.3399 4.10158L10.3722 4.07318L10.4532 3.97375L10.4874 3.9384L10.5279 3.90721L10.5908 3.88454L10.6306 3.89273L10.6632 3.91874L10.9901 4.47854L11.7362 5.31873L11.7131 5.55235L11.6773 5.58477L11.6332 5.61996L11.5909 5.62098L11.5067 5.60335L11.4575 5.60254L11.3877 5.62336L11.3725 5.66135L11.3765 5.70197L11.5302 5.95824L11.7724 6.12445L11.8453 6.23054L11.852 6.27929L11.8496 6.45417L11.8634 6.55925L11.8827 6.61633L11.9074 6.6625L12.0016 6.74459L12.1227 6.80917L12.3197 6.80262L12.4623 6.75926L12.568 6.70601L12.626 6.66468L12.6683 6.62659L12.6966 6.59462L12.7233 6.55975L12.7692 6.48059L12.7983 6.43645L12.8473 6.38282L12.891 6.36734L12.931 6.36571L13.1484 6.3844L13.2139 6.37971L13.326 6.35782L13.3793 6.32513L13.4187 6.2887L13.4785 6.1762L13.7636 5.74828L13.8363 5.59714L13.8428 5.55441L13.8371 5.51086L13.8169 5.47577L13.7902 5.44637L13.6992 5.37996L13.6802 5.34025L13.6764 5.28981L13.7116 5.1954L13.7455 5.14268L13.7822 5.09811L13.9196 4.98167L14.1966 4.79631L14.2484 4.75084L14.2896 4.70752L14.3709 4.56119L14.466 4.34439L14.5072 4.27385L14.5478 4.23283L14.5877 4.20395L14.6547 4.17496L14.6944 4.15591L14.7331 4.13167L14.9793 3.95044L15.0553 3.90653L15.1177 3.88614L15.1564 3.8891L15.1914 3.90591L15.22 3.92838L15.2444 3.95719L15.2634 3.9969L15.3201 4.41257L15.3136 4.45531L15.3008 4.49392L15.2823 4.52605L15.2242 4.60443L15.2045 4.64116L15.194 4.68038L15.1922 4.71452L15.21 4.75882L15.3576 4.93681L15.4317 5.24099L15.4376 5.44033L15.4198 5.53445L15.394 5.62148L15.3777 5.66409L15.2975 5.81565L15.2761 5.84947L15.1903 5.95749L15.1451 6.06159L15.3313 6.07687L17.1739 5.86849L17.3368 5.82311L17.4344 5.73556L17.4189 5.5905L17.4267 5.50605L17.5268 5.47355L17.7412 5.46671L18.0162 5.3995L18.184 5.33571L18.3547 5.24298L18.5244 5.17227L18.6669 5.16595L18.8005 5.17456L18.9129 5.17007L19.1548 6.03832L19.3968 6.27871L19.4219 6.3324L19.4345 6.37781L19.423 6.43901L19.4085 6.47466L19.3905 6.51434L19.3418 6.58534L19.2891 6.65282L19.2041 6.74871L19.1561 6.8174L19.1143 6.89026L19.0492 7.04094L19.0321 7.09567L18.9836 7.49802L18.9708 7.53659L18.9517 7.57103L18.9233 7.603L18.8835 7.63186L18.8453 7.66367L18.8046 7.70468L18.7981 7.74744L18.8861 8.57199L19.2481 8.90878L19.399 8.95417L19.8717 8.73966L19.9126 8.71601L19.9518 8.68944L19.9825 8.65812L20.0085 8.62553L20.0329 8.59002L20.0927 8.47748L20.1189 8.43507L20.1513 8.39682L20.2639 8.31817L20.3133 8.33638L20.3725 8.40166L20.453 8.57158L20.5083 8.62345L20.6818 8.70456L20.7472 8.77402L20.9815 9.4029L20.8935 9.50048L20.7335 9.71966L20.6847 9.76344L20.6073 9.82179L20.5436 9.85665L20.4523 9.9113L20.4174 9.95879L20.409 10.0085L20.4222 10.0515L20.5048 10.1948L20.5099 10.2407L20.5058 10.3113L20.4762 10.4492L20.4472 10.5206L20.4156 10.5739L20.3787 10.6011L20.3371 10.627L20.2333 10.6734L20.1754 10.7048L20.1039 10.7598L20.0695 10.805L20.0473 10.851L20.0318 10.9457L20.0312 11.0864L20.147 11.3276L20.1428 11.4353L20.0531 11.6041L20.0247 11.6731L20.0291 11.7213L20.0512 11.7494L20.1162 11.7743L20.1484 11.7928L20.236 11.8805L20.2457 11.9276L20.2368 11.9697L20.2148 12.0059L20.1295 12.1214L20.0956 12.1742L20.0507 12.2586L20.0429 12.343L20.3266 13.1656L20.3431 13.1873L20.366 13.2033L20.4367 13.2346L20.4791 13.2608L20.4825 13.2939L20.4366 13.4744L20.4415 13.5301L20.6214 13.9838L20.6318 14.0558L20.6247 14.1008L20.6088 14.1509L20.5395 14.3079L20.3438 14.614L20.2973 14.6583L20.2253 14.7058L20.1843 14.7022L20.1528 14.6814L20.0745 14.5863L19.9988 14.5734L19.8772 14.5754L19.595 14.6234L19.384 14.6361L19.3483 14.6216L19.2854 14.58L19.1188 14.3994L19.0816 14.3721L19.0224 14.3439L18.9846 14.3561L18.9506 14.3815L18.8805 14.4864L18.8492 14.52L18.7804 14.5831L18.6573 14.6738L18.6097 14.713L18.5772 14.7512L18.5354 14.8241L18.3999 15.1363L18.1438 15.6215L18.1281 15.6618L18.1193 15.7039L18.1184 15.7531L18.1378 15.9116L18.1346 15.9602L18.1046 16.0263L18.05 16.1007L17.8772 16.257L17.338 16.6367L17.1117 16.8356L17.1731 17.4182L17.1178 17.8089L17.1516 18.1071L16.6567 18.4417L16.4812 18.5431L16.4357 18.5655L16.3946 18.599L16.3644 18.6378L16.3559 18.6974L16.3792 18.7209L16.4161 18.7308L16.5488 18.7243L16.5899 18.7279L16.6261 18.7401L16.685 18.788L16.7296 18.8519L16.7428 18.895L16.7472 18.9431L16.7407 18.9859L16.725 19.0262L16.7029 19.0623L16.6769 19.0949L16.6375 19.1313L16.5899 19.1705L16.5183 19.2255L16.432 19.2987L16.2934 19.447L16.2614 19.4557L16.2081 19.4612L16.1009 19.4275L16.0441 19.4L15.9709 19.3408L15.9388 19.3223L15.9025 19.3101L15.8494 19.3058L15.7845 19.3082L15.6654 19.3282L15.5991 19.345L15.4383 19.4379L15.2436 19.6206L15.1846 19.6839L15.1579 19.7188L15.0486 19.8502L15.0157 19.8809L14.981 19.9087L14.9418 19.9353L14.7768 20.0344L14.7474 20.0612L14.7268 20.0828L14.7258 20.1048L14.7335 20.1316L14.7778 20.2152L14.7898 20.2258L14.8759 20.1994L14.9207 20.1892L14.9594 20.1922L14.9722 20.2277L14.9555 20.29L14.8766 20.3999L14.8235 20.4598L14.7747 20.5036L14.7377 20.5308L14.5312 20.6559L14.4966 20.6837L14.4636 20.7144L14.4356 20.7638L14.4101 20.8311L14.3949 20.9803L14.3952 21.062L14.4822 21.3646L14.2894 21.4662L14.1943 21.4704L14.0462 21.4332L13.9126 21.4246L13.7351 21.4413L13.6883 21.4684L13.6464 21.514L13.6043 21.6065L13.5588 21.7674L13.5349 21.8104L13.4965 21.852L13.4205 21.896L13.3676 21.909L13.3213 21.9065L13.2214 21.855L13.1759 21.8774L13.1152 21.9378L13.0242 22.084L12.9353 22.1664L12.8727 22.2065L12.8239 22.2132L12.7371 22.2147L12.6897 22.244L12.6424 22.3006L12.6036 22.436L12.6 22.5142L12.6105 22.5763L12.7789 22.8885L12.7909 22.9361L12.7947 22.9866L12.7827 23.0773L12.7599 23.1256L12.726 23.1783L12.6087 23.3026L12.5295 23.3581L12.4734 23.3925L12.0602 23.5512L11.8663 23.6476L11.7704 23.701L11.7249 23.7234L11.6621 23.7363L11.6117 23.7401L11.4169 23.6829L11.3374 23.6938L11.3126 23.7217L11.2972 23.7794L11.3277 24.0991L11.2986 24.1432L11.2418 24.1799L11.0938 24.1971L11.0197 24.197L11.0056 24.213Z" stroke="white" stroke-width="1.879" stroke-linejoin="round" mask="url(#path-1-outside-1_508_163)"/>
</svg>
